<?xml version="1.0" encoding="utf-8"?>
<!-- Generator: Adobe Illustrator 25.0.0, SVG Export Plug-In . SVG Version: 6.00 Build 0)  -->
<svg version="1.1" id="Layer_1" xmlns="http://www.w3.org/2000/svg" xmlns:xlink="http://www.w3.org/1999/xlink" x="0px" y="0px"
	 viewBox="0 0 427 66" style="enable-background:new 0 0 427 66;" xml:space="preserve">
<style type="text/css">
	.st0{fill:none;stroke:#675648;stroke-width:0.5;stroke-miterlimit:10;}
	.st1{fill:#FFFFFF;}
	.st2{fill:#675648;}
	.st3{fill:none;}
</style>
<text transform="matrix(1 0 0 1 -119.8953 -157.4558)" class="st1" style="font-family:'ClarityCity-Bold'; font-size:65.5605px;">PIDAN STUDIO</text>
<g>
	<path class="st0" d="M10.7,10.8H31c3.2,0,6.1,0.6,8.7,1.9c2.6,1.3,4.6,3.1,6.1,5.4S48,23,48,26c0,2.9-0.7,5.6-2.2,7.9
		s-3.5,4.1-6.1,5.4c-2.6,1.3-5.5,1.9-8.7,1.9H20.4v14.6h-9.7V10.8z M30,32.4c2.4,0,4.3-0.6,5.8-1.7c1.5-1.2,2.2-2.7,2.2-4.6
		s-0.7-3.5-2.2-4.6c-1.5-1.2-3.4-1.7-5.8-1.7h-9.6v12.7L30,32.4L30,32.4z"/>
	<path class="st0" d="M56.3,15.8c-1-1-1.5-2.3-1.5-3.7s0.5-2.5,1.5-3.6c1-1,2.3-1.5,3.7-1.5s2.6,0.5,3.6,1.5s1.5,2.2,1.5,3.6
		s-0.5,2.7-1.5,3.7s-2.2,1.5-3.6,1.5C58.5,17.3,57.3,16.8,56.3,15.8z M55.2,22h9.6v33.9h-9.6C55.2,55.9,55.2,22,55.2,22z"/>
	<path class="st0" d="M108.4,10.1v45.8h-9.6V51c-1.4,1.8-3,3.2-5,4.2s-4.1,1.5-6.5,1.5c-3,0-5.6-0.8-8-2.3s-4.2-3.6-5.5-6.3
		s-2-5.8-2-9.2s0.7-6.5,2-9.1c1.3-2.7,3.2-4.8,5.5-6.3s5-2.3,8-2.3c2.4,0,4.5,0.5,6.5,1.5s3.6,2.4,5,4.2V10.1H108.4z M96.4,45.9
		c1.6-1.8,2.4-4.1,2.4-7c0-2.8-0.8-5.1-2.4-6.9c-1.6-1.8-3.7-2.7-6.2-2.7c-2.7,0-4.8,0.9-6.5,2.7c-1.7,1.8-2.5,4.1-2.5,6.9
		c0,2.8,0.8,5.2,2.5,7s3.9,2.7,6.5,2.7C92.7,48.6,94.8,47.7,96.4,45.9z"/>
	<path class="st0" d="M139.7,23c2.3,1.2,4,2.9,5.3,5c1.2,2.2,1.9,4.7,1.9,7.6v20.3h-9.2v-3.4c-1.2,1.3-2.7,2.3-4.5,3.1
		c-1.8,0.7-3.7,1.1-5.5,1.1c-2.4,0-4.6-0.4-6.5-1.3c-1.9-0.9-3.4-2.2-4.6-3.8c-1.1-1.6-1.7-3.5-1.7-5.7s0.6-4.1,1.9-5.8
		c1.2-1.7,2.9-3,5.1-4c2.1-1,4.5-1.4,7.1-1.4c2.9,0,5.8,0.6,8.7,1.8v-0.7c0-2-0.7-3.6-2-4.9c-1.3-1.3-3.3-1.9-5.9-1.9
		c-2.7,0-5.6,0.8-8.8,2.4l-3.2-6.4c4.9-2.5,9.6-3.7,14.2-3.7C134.8,21.2,137.4,21.8,139.7,23z M134.8,48.8c1.5-0.9,2.4-2,2.8-3.6
		v-3.1c-2.2-0.9-4.7-1.3-7.3-1.3c-1.7,0-3.2,0.5-4.5,1.4s-1.8,2.1-1.8,3.4c0,1.4,0.5,2.4,1.6,3.2s2.5,1.2,4.1,1.2
		C131.6,50.1,133.3,49.6,134.8,48.8z"/>
	<path class="st0" d="M181.5,22.9c1.9,1.1,3.4,2.7,4.5,4.7s1.6,4.3,1.6,6.8V56h-9.2V36.3c0-2.1-0.6-3.8-1.8-5.1
		c-1.2-1.3-2.8-2-4.7-2c-2,0-3.7,0.6-5,1.9c-1.4,1.3-2,2.8-2,4.7v20.1h-9.6V22h9.6v4.1c1-1.5,2.5-2.7,4.3-3.6s3.8-1.3,6-1.3
		C177.4,21.2,179.6,21.8,181.5,22.9z"/>
	<path class="st0" d="M220.7,54.8c-3.4-1.3-6.4-3.1-9-5.6l5.5-6.6c4.5,3.9,9.5,5.9,14.8,5.9c2.4,0,4.2-0.5,5.5-1.4s1.9-2.2,1.9-3.6
		c0-1-0.3-1.9-0.9-2.6c-0.6-0.7-1.6-1.2-2.9-1.7c-1.3-0.5-3.2-1-5.7-1.5c-3.6-0.8-6.6-1.7-8.9-2.7c-2.3-1-4.1-2.3-5.4-4.1
		c-1.3-1.7-2-4-2-6.8s0.7-5.2,2.1-7.3c1.4-2.1,3.4-3.8,5.9-5s5.4-1.8,8.7-1.8c6.9,0,12.7,2.1,17.6,6.2l-5,7
		c-2.1-1.7-4.2-2.9-6.4-3.8s-4.4-1.3-6.5-1.3c-2,0-3.6,0.5-4.8,1.4s-1.8,2.1-1.8,3.5c0,1.1,0.3,2,1,2.6c0.6,0.7,1.6,1.2,3,1.7
		c1.3,0.5,3.3,1,5.8,1.6c3.6,0.8,6.5,1.7,8.8,2.7s4.1,2.4,5.4,4.1s1.9,3.9,1.9,6.6c0,2.8-0.7,5.3-2.1,7.5c-1.4,2.2-3.4,3.8-6.1,5
		c-2.6,1.2-5.8,1.8-9.3,1.8C227.7,56.7,224.1,56,220.7,54.8z"/>
	<path class="st0" d="M276.2,53.7c-1,0.9-2.2,1.6-3.6,2.1s-2.8,0.8-4.1,0.8c-3,0-5.5-1-7.4-2.9s-2.9-4.4-2.9-7.5V29.7h-4.7V22h4.7
		v-9.3h9.2V22h7.3v7.7h-7.3v15.1c0,1.1,0.3,2,0.9,2.7s1.4,1.1,2.2,1.1c0.7,0,1.3-0.1,1.9-0.3s1.1-0.5,1.4-0.8L276.2,53.7z"/>
	<path class="st0" d="M314.1,22v33.9h-9.6v-4.1c-1,1.5-2.5,2.7-4.3,3.6c-1.8,0.9-3.8,1.3-5.9,1.3c-2.4,0-4.6-0.6-6.5-1.7
		c-1.9-1.1-3.4-2.7-4.5-4.7s-1.6-4.2-1.6-6.8V22h9.2v19.5c0,2.1,0.6,3.8,1.8,5.1s2.8,2,4.7,2c2,0,3.7-0.6,5-1.9c1.4-1.3,2-2.8,2-4.7
		V22H314.1z"/>
	<path class="st0" d="M357.7,10.1v45.8h-9.6V51c-1.4,1.8-3,3.2-5,4.2s-4.1,1.5-6.5,1.5c-3,0-5.6-0.8-8-2.3s-4.2-3.6-5.5-6.3
		s-2-5.8-2-9.2s0.7-6.5,2-9.1c1.3-2.7,3.2-4.8,5.5-6.3s5-2.3,8-2.3c2.4,0,4.5,0.5,6.5,1.5s3.6,2.4,5,4.2V10.1H357.7z M345.7,45.9
		c1.6-1.8,2.4-4.1,2.4-7c0-2.8-0.8-5.1-2.4-6.9c-1.6-1.8-3.7-2.7-6.2-2.7c-2.7,0-4.8,0.9-6.5,2.7c-1.7,1.8-2.5,4.1-2.5,6.9
		c0,2.8,0.8,5.2,2.5,7s3.9,2.7,6.5,2.7C342,48.6,344.1,47.7,345.7,45.9z"/>
	<path class="st0" d="M368,15.8c-1-1-1.5-2.3-1.5-3.7s0.5-2.5,1.5-3.6c1-1,2.3-1.5,3.7-1.5c1.4,0,2.6,0.5,3.6,1.5s1.5,2.2,1.5,3.6
		s-0.5,2.7-1.5,3.7s-2.2,1.5-3.6,1.5C370.3,17.3,369,16.8,368,15.8z M366.9,22h9.6v33.9h-9.6V22z"/>
	<path class="st0" d="M392.5,54.3c-2.8-1.6-5.1-3.8-6.8-6.5c-1.7-2.7-2.5-5.7-2.5-8.9c0-3.2,0.8-6.1,2.5-8.9
		c1.7-2.7,3.9-4.9,6.8-6.5c2.8-1.6,5.9-2.4,9.2-2.4c3.3,0,6.4,0.8,9.2,2.4c2.8,1.6,5.1,3.7,6.8,6.5c1.7,2.7,2.5,5.7,2.5,8.9
		s-0.8,6.2-2.5,8.9s-3.9,4.9-6.8,6.5c-2.8,1.6-5.9,2.4-9.2,2.4C398.5,56.7,395.4,55.9,392.5,54.3z M406.4,47.3
		c1.4-0.9,2.5-2.1,3.4-3.5c0.8-1.5,1.2-3.1,1.2-4.9c0-1.7-0.4-3.4-1.2-4.8c-0.8-1.5-2-2.6-3.4-3.5s-3-1.3-4.6-1.3
		c-1.7,0-3.2,0.4-4.7,1.3c-1.4,0.9-2.6,2-3.4,3.5s-1.2,3.1-1.2,4.8s0.4,3.4,1.2,4.9c0.8,1.5,2,2.7,3.4,3.5c1.4,0.9,3,1.3,4.7,1.3
		C403.4,48.6,405,48.2,406.4,47.3z"/>
</g>
<circle class="st1" cx="-177.3" cy="-142.7" r="19.6"/>
<rect x="-182.6" y="-143.3" class="st2" width="10.7" height="1.1"/>
<rect x="-177.8" y="-148.1" class="st2" width="1.1" height="10.7"/>
<circle class="st2" cx="-177.8" cy="-89.3" r="19.6"/>
<rect x="-183.2" y="-89.9" class="st1" width="10.7" height="1.1"/>
<rect x="-178.4" y="-94.6" class="st1" width="1.1" height="10.7"/>
<g>
	<path class="st2" d="M-278.7,13.2l4.8-2c0.8-0.3,1.6-0.5,2.3-0.4c0.8,0,1.5,0.3,2.1,0.7s1.1,1,1.4,1.7s0.4,1.4,0.3,2.1
		s-0.4,1.4-1,2c-0.5,0.6-1.2,1.1-1.9,1.4l-3.2,1.2l1.7,4l-1.7,0.6L-278.7,13.2z M-271.7,17.1c0.8-0.4,1.4-0.8,1.8-1.4
		c0.3-0.6,0.4-1.2,0.1-1.9s-0.8-1.1-1.4-1.3s-1.4-0.1-2.3,0.3l-2.9,1.2l1.8,4.3L-271.7,17.1z"/>
	<path class="st2" d="M-265.6,8.2l1.7-0.4l3.2,11.9l-1.8,0.5L-265.6,8.2z"/>
	<path class="st2" d="M-258.6,6.4l4.2-0.5c1.3-0.2,2.5,0,3.6,0.4s2,1,2.7,1.9s1.1,1.9,1.2,3.1c0.1,1.2,0,2.3-0.5,3.3
		s-1.2,1.8-2.1,2.5c-0.9,0.7-2.1,1-3.4,1.2l-4.2,0.5L-258.6,6.4z M-253,16.5c0.9-0.1,1.7-0.4,2.4-0.9s1.2-1.1,1.5-1.8
		s0.4-1.5,0.3-2.4c-0.1-0.9-0.4-1.6-0.9-2.2c-0.5-0.6-1.1-1.1-1.9-1.4c-0.8-0.3-1.6-0.4-2.6-0.3l-2.4,0.4l1.1,9L-253,16.5z"/>
	<path class="st2" d="M-235.2,15.6l-6.4-0.5l-1.3,2.4l-2-0.2l6.3-11.9l2,0.2l4.3,12.8l-2-0.2L-235.2,15.6z M-235.8,13.9l-2-6.1
		l-3,5.6L-235.8,13.9z"/>
	<path class="st2" d="M-226.8,7l1.7,0.5l4.1,11l2.7-9l1.8,0.5l-3.6,11.9l-1.8-0.5l-4.1-11l-2.7,9l-1.7-0.5L-226.8,7z"/>
	<path class="st2" d="M-212.3,23.6l1.6-0.6c0.4,1.6,1.3,2.8,2.5,3.6c0.7,0.4,1.3,0.6,1.9,0.6c0.6-0.1,1-0.3,1.3-0.8s0.3-1,0.1-1.5
		s-0.8-1.2-1.6-2c-0.7-0.7-1.2-1.3-1.6-1.8c-0.4-0.5-0.6-1.1-0.6-1.7s0.1-1.1,0.5-1.7s0.9-1,1.5-1.3s1.3-0.4,2-0.3s1.4,0.3,2.1,0.8
		c0.8,0.5,1.4,1,1.8,1.7c0.5,0.6,0.8,1.4,1,2.2l-1.6,0.6c-0.2-0.7-0.5-1.3-0.8-1.9c-0.4-0.5-0.8-1-1.4-1.3c-0.4-0.2-0.8-0.4-1.2-0.4
		s-0.8,0-1.1,0.1s-0.6,0.3-0.7,0.6c-0.2,0.3-0.3,0.6-0.2,1s0.2,0.7,0.5,1c0.3,0.4,0.7,0.8,1.2,1.4c1,1,1.7,1.9,2,2.7
		c0.3,0.8,0.2,1.7-0.4,2.5c-0.4,0.6-0.9,1-1.4,1.3c-0.6,0.3-1.3,0.4-2,0.3s-1.5-0.4-2.3-0.9C-210.8,26.9-211.9,25.4-212.3,23.6z"/>
	<path class="st2" d="M-194,25.7l-3-2.7l1.1-1.3l7.4,6.6l-1.1,1.3l-3-2.7l-7.1,8l-1.4-1.2L-194,25.7z"/>
	<path class="st2" d="M-193.5,40.6c-0.1-0.9,0-1.8,0.4-2.7s1-1.6,1.8-2.3l5.7-4.4l1.1,1.4l-5.6,4.4c-0.6,0.4-1,1-1.3,1.6
		s-0.4,1.2-0.3,1.8c0.1,0.6,0.3,1.2,0.7,1.7s0.9,0.9,1.5,1.1c0.6,0.2,1.2,0.3,1.8,0.1s1.2-0.4,1.8-0.9l5.6-4.4l1.1,1.4l-5.7,4.4
		c-0.8,0.6-1.7,1-2.6,1.2s-1.8,0-2.7-0.3c-0.9-0.4-1.6-0.9-2.2-1.7C-193,42.4-193.3,41.5-193.5,40.6z"/>
	<path class="st2" d="M-176.2,44.5l1.9,3.8c0.6,1.2,0.9,2.4,0.8,3.5c0,1.2-0.3,2.2-0.9,3.1c-0.6,0.9-1.4,1.7-2.5,2.2
		s-2.2,0.7-3.3,0.6c-1.1-0.1-2.1-0.5-3-1.2s-1.7-1.6-2.3-2.8l-1.9-3.8L-176.2,44.5z M-183.9,53.1c0.4,0.8,1,1.5,1.6,2
		s1.4,0.8,2.2,0.8c0.8,0.1,1.6-0.1,2.4-0.5s1.4-0.9,1.8-1.6c0.4-0.7,0.7-1.4,0.7-2.3c0-0.8-0.2-1.7-0.6-2.5l-1.1-2.3l-8.1,4
		L-183.9,53.1z"/>
	<path class="st2" d="M-169.9,58.8l0.6,1.7l-11.8,3.8l-0.6-1.7L-169.9,58.8z"/>
	<path class="st2" d="M-179,69.9c0.4-1.1,1.1-2,2-2.7s1.9-1.2,3-1.4s2.2-0.1,3.3,0.4c1.1,0.4,2,1.1,2.7,2s1.2,1.9,1.4,3
		s0.1,2.2-0.4,3.3c-0.4,1.1-1.1,2-1.9,2.7s-1.9,1.2-3,1.4c-1.1,0.2-2.2,0.1-3.3-0.4c-1.1-0.4-2-1.1-2.7-2s-1.2-1.9-1.4-3
		C-179.5,72-179.4,71-179,69.9z M-176.7,75c0.5,0.6,1.2,1.1,2,1.4s1.6,0.4,2.4,0.2c0.8-0.1,1.6-0.5,2.2-1s1.1-1.2,1.4-1.9
		c0.3-0.8,0.4-1.5,0.3-2.3c-0.1-0.8-0.5-1.5-1-2.1s-1.2-1.1-2-1.4s-1.6-0.4-2.4-0.2c-0.8,0.1-1.6,0.5-2.2,1
		c-0.7,0.5-1.1,1.2-1.5,1.9c-0.3,0.8-0.4,1.5-0.3,2.3S-177.2,74.4-176.7,75z"/>
	<path class="st2" d="M-166,88.6l-0.6,5.2c-0.1,0.8-0.4,1.6-0.8,2.3c-0.4,0.7-1,1.1-1.6,1.5c-0.7,0.3-1.4,0.4-2.1,0.4
		c-0.8-0.1-1.4-0.4-2-0.8s-1-1.1-1.2-1.8c-0.2-0.7-0.3-1.5-0.2-2.4l0.4-3.4l-4.3-0.5l0.2-1.8L-166,88.6z M-172.9,92.7
		c-0.1,0.9,0,1.6,0.4,2.2s0.9,0.9,1.6,1c0.7,0.1,1.3-0.1,1.8-0.6s0.8-1.2,0.9-2.1l0.4-3.1l-4.6-0.6L-172.9,92.7z"/>
	<path class="st2" d="M-168.2,102.4l-0.5,1.8l-12-3.1l0.5-1.8L-168.2,102.4z"/>
	<path class="st2" d="M-170.1,109.4l-1.7,3.9c-0.5,1.2-1.2,2.2-2.1,2.9c-0.9,0.7-1.9,1.2-3,1.4c-1.1,0.2-2.2,0-3.3-0.4
		c-1.1-0.5-2-1.2-2.6-2.1s-1-1.9-1.1-3.1s0.1-2.3,0.7-3.6l1.7-3.9L-170.1,109.4z M-181.7,109.2c-0.4,0.9-0.5,1.7-0.5,2.5
		c0.1,0.8,0.3,1.6,0.8,2.2c0.5,0.7,1.1,1.1,1.9,1.5c0.8,0.3,1.6,0.5,2.4,0.3s1.5-0.4,2.2-1c0.6-0.5,1.1-1.2,1.5-2.1l1-2.4l-8.3-3.5
		L-181.7,109.2z"/>
	<path class="st2" d="M-189.7,125.1l3.7-5.3l-1.5-2.4l1.1-1.7l7.1,11.4l-1.1,1.7l-13.2-2.7l1.1-1.7L-189.7,125.1z M-188,125.5
		l6.3,1.3l-3.4-5.4L-188,125.5z"/>
	<path class="st2" d="M-186.5,136.7l-1.3,1.2l-11.6-1.9l6.4,6.8l-1.3,1.3l-8.5-9l1.3-1.3l11.6,1.9l-6.4-6.8l1.3-1.2L-186.5,136.7z"
		/>
	<path class="st2" d="M-208.1,141l-0.3,1.7c-1.6-0.4-3.1-0.3-4.4,0.4c-0.7,0.4-1.2,0.8-1.4,1.4c-0.2,0.5-0.2,1,0,1.5
		c0.3,0.5,0.7,0.7,1.2,0.8c0.6,0,1.4-0.1,2.5-0.4c0.9-0.2,1.7-0.4,2.4-0.4s1.2,0.1,1.7,0.3s0.9,0.7,1.3,1.3c0.3,0.6,0.4,1.2,0.4,1.9
		c-0.1,0.7-0.3,1.3-0.7,1.9c-0.4,0.6-1,1.1-1.7,1.5c-0.8,0.4-1.6,0.7-2.4,0.8s-1.6,0-2.4-0.2l0.3-1.7c0.7,0.2,1.4,0.2,2,0.2
		s1.3-0.2,1.8-0.5c0.4-0.2,0.7-0.5,0.9-0.8s0.4-0.7,0.4-1s0-0.7-0.2-1s-0.4-0.5-0.7-0.7c-0.3-0.1-0.7-0.1-1.1-0.1
		c-0.5,0.1-1.1,0.2-1.8,0.4c-1.4,0.4-2.5,0.5-3.4,0.3c-0.9-0.1-1.5-0.7-2-1.6c-0.3-0.6-0.5-1.3-0.4-1.9c0-0.7,0.3-1.3,0.7-1.9
		c0.4-0.6,1.1-1.1,1.9-1.6C-211.7,140.7-209.9,140.5-208.1,141z"/>
	<path class="st2" d="M-219,155.8l3.9-1.3l0.5,1.6l-9.4,3.2l-0.5-1.6l3.8-1.3l-3.4-10.1l1.7-0.6L-219,155.8z"/>
	<path class="st2" d="M-232.2,148.9c0.9,0.3,1.6,0.9,2.1,1.6c0.6,0.8,0.9,1.6,1.1,2.7l1,7.1l-1.8,0.3l-1-7.1
		c-0.1-0.7-0.3-1.4-0.7-1.9s-0.8-0.9-1.4-1.2c-0.6-0.2-1.2-0.3-1.9-0.2s-1.2,0.3-1.7,0.7s-0.8,0.9-1,1.5s-0.3,1.3-0.2,2l1,7.1
		l-1.8,0.3l-1-7.1c-0.1-1,0-2,0.3-2.9s0.9-1.6,1.6-2.2c0.7-0.6,1.6-0.9,2.6-1.1C-234,148.4-233.1,148.5-232.2,148.9z"/>
	<path class="st2" d="M-244.2,161.9l-4.3-0.3c-1.3-0.1-2.5-0.4-3.5-1s-1.8-1.4-2.3-2.3s-0.7-2-0.7-3.2c0.1-1.2,0.4-2.2,1.1-3.1
		c0.6-0.9,1.5-1.6,2.6-2c1.1-0.5,2.3-0.7,3.6-0.6l4.3,0.3L-244.2,161.9z M-247.9,151c-0.9-0.1-1.8,0.1-2.5,0.4
		c-0.8,0.3-1.4,0.8-1.8,1.5c-0.5,0.7-0.7,1.4-0.8,2.3c-0.1,0.9,0.1,1.7,0.5,2.4s0.9,1.3,1.6,1.7s1.5,0.7,2.5,0.7l2.6,0.2l0.6-9
		L-247.9,151z"/>
	<path class="st2" d="M-259.7,160.2l-1.8-0.4l2.6-12.1l1.8,0.4L-259.7,160.2z"/>
	<path class="st2" d="M-264.9,146.9c0.7,0.9,1.2,1.9,1.4,3s0.1,2.2-0.3,3.3s-1.1,1.9-2,2.7c-0.9,0.7-1.9,1.2-3,1.3
		c-1.1,0.2-2.2,0.1-3.3-0.3c-1.1-0.4-2-1.1-2.7-1.9c-0.7-0.9-1.2-1.9-1.4-3c-0.2-1.1-0.1-2.2,0.3-3.3s1.1-2,1.9-2.7
		c0.9-0.7,1.9-1.2,3-1.4s2.2-0.1,3.3,0.3C-266.5,145.3-265.6,146-264.9,146.9z M-270.5,146.3c-0.8,0.2-1.5,0.5-2.2,1s-1.1,1.2-1.4,2
		s-0.4,1.6-0.3,2.4c0.1,0.8,0.4,1.6,1,2.2c0.5,0.7,1.1,1.1,1.9,1.4c0.8,0.3,1.5,0.4,2.3,0.2s1.5-0.5,2.2-1c0.6-0.5,1.1-1.2,1.4-2
		s0.4-1.6,0.3-2.4s-0.4-1.6-0.9-2.2c-0.5-0.7-1.1-1.1-1.9-1.4C-268.9,146.2-269.7,146.1-270.5,146.3z"/>
	<path class="st2" d="M-287.6,148.8l-4.2-3.1c-0.7-0.5-1.2-1.1-1.6-1.8s-0.5-1.4-0.5-2.1c0-0.7,0.3-1.4,0.8-2s1-1.1,1.7-1.3
		c0.7-0.3,1.4-0.3,2.2-0.2c0.8,0.1,1.5,0.5,2.2,1l2.7,2l2.6-3.4l1.5,1.1L-287.6,148.8z M-287.7,140.8c-0.7-0.5-1.4-0.8-2.1-0.8
		s-1.3,0.3-1.7,0.9c-0.4,0.6-0.6,1.2-0.4,1.9s0.6,1.3,1.4,1.8l2.5,1.9l2.8-3.7L-287.7,140.8z"/>
	<path class="st2" d="M-298.4,140l-1.3-1.3l8.7-8.8l1.3,1.3L-298.4,140z"/>
	<path class="st2" d="M-303.5,134.9l-2.6-3.4c-0.8-1.1-1.3-2.1-1.5-3.3c-0.2-1.1-0.1-2.2,0.3-3.3c0.4-1.1,1.1-1.9,2-2.6
		s2-1.1,3.1-1.2s2.2,0.1,3.2,0.6s2,1.3,2.8,2.3l2.6,3.4L-303.5,134.9z M-297.6,124.9c-0.6-0.7-1.2-1.3-2-1.7
		c-0.8-0.4-1.5-0.5-2.3-0.4s-1.5,0.4-2.2,0.9s-1.2,1.2-1.5,1.9c-0.3,0.7-0.4,1.5-0.2,2.3c0.1,0.8,0.5,1.6,1.1,2.3l1.5,2l7.2-5.5
		L-297.6,124.9z"/>
	<path class="st2" d="M-307.4,110.1l2.8,5.8l2.8-0.1l0.9,1.8l-13.4,0.5l-0.9-1.8l8.9-10.1l0.9,1.8L-307.4,110.1z M-308.5,111.4
		l-4.2,4.8l6.4-0.2L-308.5,111.4z"/>
	<path class="st2" d="M-319,107l-0.4-1.8l7.5-9.1l-9.1,2.2l-0.4-1.8l12-2.9l0.4,1.8l-7.5,9.1l9.1-2.2l0.4,1.8L-319,107z"/>
	<path class="st2" d="M-312,86.2l-1.3-1.1c1.2-1.2,1.8-2.5,1.9-4c0-0.8-0.1-1.5-0.5-1.9c-0.4-0.5-0.8-0.7-1.3-0.7
		c-0.6,0-1,0.2-1.3,0.7s-0.6,1.3-0.9,2.4c-0.2,0.9-0.5,1.7-0.8,2.3c-0.3,0.6-0.7,1-1.1,1.4c-0.5,0.3-1.1,0.5-1.8,0.4
		c-0.7,0-1.3-0.2-1.8-0.6s-1-0.9-1.2-1.6c-0.3-0.7-0.4-1.4-0.4-2.2c0-0.9,0.2-1.7,0.5-2.4c0.3-0.7,0.8-1.4,1.4-2l1.3,1.1
		c-0.5,0.5-0.9,1.1-1.2,1.7c-0.3,0.6-0.4,1.2-0.5,1.8c0,0.4,0.1,0.8,0.2,1.2c0.2,0.4,0.4,0.7,0.7,0.9c0.3,0.2,0.6,0.3,0.9,0.3
		c0.4,0,0.7-0.1,0.9-0.3c0.2-0.2,0.5-0.5,0.6-1c0.2-0.4,0.4-1,0.6-1.8c0.4-1.4,0.8-2.4,1.4-3.1s1.3-1,2.4-1c0.7,0,1.3,0.2,1.9,0.6
		s1,0.9,1.3,1.6s0.4,1.5,0.4,2.5C-309.9,83.2-310.6,84.9-312,86.2z"/>
	<path class="st2" d="M-319.5,69.4l-0.8,4l-1.6-0.4l1.9-9.7l1.7,0.3l-0.8,4l10.5,2.1l-0.4,1.8L-319.5,69.4z"/>
	<path class="st2" d="M-306.8,61.3c-0.7,0.6-1.6,0.9-2.5,1s-1.9,0-2.8-0.4l-6.6-2.7l0.7-1.7l6.6,2.7c0.7,0.3,1.3,0.4,2,0.3
		c0.6-0.1,1.2-0.3,1.7-0.6s0.9-0.9,1.1-1.5s0.3-1.2,0.2-1.9s-0.4-1.2-0.8-1.6c-0.4-0.5-1-0.9-1.7-1.1l-6.6-2.7l0.7-1.7l6.6,2.7
		c1,0.4,1.8,0.9,2.3,1.7s1,1.6,1.1,2.5s0,1.9-0.4,2.8C-305.5,60-306.1,60.8-306.8,61.3z"/>
	<path class="st2" d="M-312.2,44.4l2.4-3.6c0.7-1.1,1.6-1.9,2.6-2.5s2.1-0.8,3.2-0.8s2.1,0.4,3.1,1c1,0.7,1.7,1.5,2.2,2.5
		s0.6,2.1,0.5,3.2c-0.1,1.1-0.6,2.3-1.3,3.4l-2.4,3.7L-312.2,44.4z M-300.9,46.7c0.5-0.8,0.8-1.6,0.9-2.4c0.1-0.8,0-1.6-0.4-2.3
		c-0.3-0.7-0.9-1.3-1.6-1.8s-1.5-0.7-2.3-0.8c-0.8,0-1.6,0.1-2.3,0.6c-0.7,0.4-1.4,1-1.9,1.8l-1.4,2.1l7.5,5L-300.9,46.7z"/>
	<path class="st2" d="M-303,31.9l1.2-1.4l9.2,8.3l-1.2,1.4L-303,31.9z"/>
	<path class="st2" d="M-288.8,34c-1.1,0.2-2.2,0.1-3.3-0.3c-1.1-0.4-2-1-2.7-1.9s-1.2-1.9-1.3-3c-0.2-1.1-0.1-2.2,0.3-3.3
		c0.4-1.1,1-2,1.9-2.7s1.9-1.2,3-1.3c1.1-0.2,2.2-0.1,3.3,0.3s2,1,2.7,1.9s1.2,1.9,1.3,3c0.2,1.1,0.1,2.2-0.3,3.3
		c-0.4,1.1-1,2-1.9,2.7C-286.7,33.4-287.7,33.9-288.8,34z M-285.5,29.5c0.3-0.8,0.3-1.6,0.2-2.4c-0.1-0.8-0.5-1.6-1-2.2
		s-1.2-1.1-2-1.4s-1.6-0.4-2.4-0.3s-1.5,0.4-2.2,0.9c-0.6,0.5-1.1,1.2-1.3,1.9c-0.3,0.8-0.3,1.6-0.2,2.4s0.5,1.6,1,2.2
		s1.2,1.1,2,1.4s1.6,0.4,2.4,0.3c0.8-0.1,1.5-0.4,2.2-0.9C-286.3,30.9-285.8,30.3-285.5,29.5z"/>
</g>
<path id="SVGID_x5F_1_x5F__1_" class="st3" d="M-287.7,37.1c0,36.4-29.5,65.9-65.9,65.9s-65.9-29.5-65.9-65.9s29.5-65.9,65.9-65.9
	S-287.7,0.8-287.7,37.1z"/>
<text transform="matrix(0.5828 0.8126 -0.8126 0.5828 -300.9922 -2.5726)" style="font-family:'ArialMT'; font-size:12px;"> </text>
<text transform="matrix(0.4823 0.876 -0.876 0.4823 -298.8163 -3.445148e-05)" class="st2" style="font-family:'ClarityCity-Medium'; font-size:18px; letter-spacing:18;">P</text>
<text transform="matrix(6.199656e-02 0.9981 -0.9981 6.199656e-02 -287.9986 30.2487)" class="st2" style="font-family:'ClarityCity-Medium'; font-size:18px; letter-spacing:18;">I</text>
<text transform="matrix(1 0 0 1 -328.9 -2.0821)" style="font-family:'ArialMT'; font-size:12px;"> </text>
</svg>
