<?xml version="1.0" encoding="utf-8"?>
<!-- Generator: Adobe Illustrator 25.0.0, SVG Export Plug-In . SVG Version: 6.00 Build 0)  -->
<svg version="1.1" id="Layer_1" xmlns="http://www.w3.org/2000/svg" xmlns:xlink="http://www.w3.org/1999/xlink" x="0px" y="0px"
	 viewBox="0 0 168.8 169.2" style="enable-background:new 0 0 168.8 169.2;" xml:space="preserve">
<style type="text/css">
	.st0{fill:#FFFFFF;}
	.st1{fill:#675648;}
</style>
<text transform="matrix(1 0 0 1 -102.8953 -141.6737)" class="st0" style="font-family:'ClarityCity-Bold'; font-size:65.5605px;">PIDAN STUDIO</text>
<circle class="st0" cx="-160.3" cy="-126.9" r="19.6"/>
<rect x="-165.6" y="-127.5" class="st1" width="10.7" height="1.1"/>
<rect x="-160.8" y="-132.3" class="st1" width="1.1" height="10.7"/>
<circle class="st1" cx="-160.8" cy="-73.5" r="19.6"/>
<rect x="-166.2" y="-74.1" class="st0" width="10.7" height="1.1"/>
<rect x="-161.4" y="-78.8" class="st0" width="1.1" height="10.7"/>
<g>
	<path class="st1" d="M50.2,15.3l4.8-2c0.8-0.3,1.6-0.5,2.3-0.4c0.8,0,1.5,0.3,2.1,0.7c0.6,0.4,1.1,1,1.4,1.7
		c0.3,0.7,0.4,1.4,0.3,2.1c-0.1,0.7-0.4,1.4-1,2c-0.5,0.6-1.2,1.1-1.9,1.4L55,22l1.7,4L55,26.6L50.2,15.3z M57.2,19.2
		c0.8-0.4,1.4-0.8,1.8-1.4c0.3-0.6,0.4-1.2,0.1-1.9c-0.3-0.7-0.8-1.1-1.4-1.3s-1.4-0.1-2.3,0.3l-2.9,1.2l1.8,4.3L57.2,19.2z"/>
	<path class="st1" d="M63.3,10.3L65,9.9l3.2,11.9l-1.8,0.5L63.3,10.3z"/>
	<path class="st1" d="M70.3,8.5L74.5,8c1.3-0.2,2.5,0,3.6,0.4c1.1,0.4,2,1,2.7,1.9c0.7,0.9,1.1,1.9,1.2,3.1c0.1,1.2,0,2.3-0.5,3.3
		c-0.5,1-1.2,1.8-2.1,2.5s-2.1,1-3.4,1.2l-4.2,0.5L70.3,8.5z M75.9,18.6c0.9-0.1,1.7-0.4,2.4-0.9c0.7-0.5,1.2-1.1,1.5-1.8
		c0.3-0.7,0.4-1.5,0.3-2.4s-0.4-1.6-0.9-2.2c-0.5-0.6-1.1-1.1-1.9-1.4c-0.8-0.3-1.6-0.4-2.6-0.3L72.3,10l1.1,9L75.9,18.6z"/>
	<path class="st1" d="M93.7,17.7l-6.4-0.5L86,19.6l-2-0.2l6.3-11.9l2,0.2l4.3,12.8l-2-0.2L93.7,17.7z M93.1,16l-2-6.1l-3,5.6
		L93.1,16z"/>
	<path class="st1" d="M102.1,9.1l1.7,0.5l4.1,11l2.7-9l1.8,0.5L108.8,24l-1.8-0.5l-4.1-11l-2.7,9L98.5,21L102.1,9.1z"/>
	<path class="st1" d="M116.6,25.7l1.6-0.6c0.4,1.6,1.3,2.8,2.5,3.6c0.7,0.4,1.3,0.6,1.9,0.6c0.6-0.1,1-0.3,1.3-0.8
		c0.3-0.5,0.3-1,0.1-1.5c-0.2-0.5-0.8-1.2-1.6-2c-0.7-0.7-1.2-1.3-1.6-1.8c-0.4-0.5-0.6-1.1-0.6-1.7s0.1-1.1,0.5-1.7
		c0.4-0.6,0.9-1,1.5-1.3c0.6-0.3,1.3-0.4,2-0.3c0.7,0.1,1.4,0.3,2.1,0.8c0.8,0.5,1.4,1,1.8,1.7c0.5,0.6,0.8,1.4,1,2.2l-1.6,0.6
		c-0.2-0.7-0.5-1.3-0.8-1.9c-0.4-0.5-0.8-1-1.4-1.3c-0.4-0.2-0.8-0.4-1.2-0.4c-0.4,0-0.8,0-1.1,0.1c-0.3,0.1-0.6,0.3-0.7,0.6
		c-0.2,0.3-0.3,0.6-0.2,1s0.2,0.7,0.5,1c0.3,0.4,0.7,0.8,1.2,1.4c1,1,1.7,1.9,2,2.7c0.3,0.8,0.2,1.7-0.4,2.5c-0.4,0.6-0.9,1-1.4,1.3
		c-0.6,0.3-1.3,0.4-2,0.3c-0.7-0.1-1.5-0.4-2.3-0.9C118.1,29,117,27.5,116.6,25.7z"/>
	<path class="st1" d="M134.9,27.8l-3-2.7l1.1-1.3l7.4,6.6l-1.1,1.3l-3-2.7l-7.1,8l-1.4-1.2L134.9,27.8z"/>
	<path class="st1" d="M135.4,42.7c-0.1-0.9,0-1.8,0.4-2.7s1-1.6,1.8-2.3l5.7-4.4l1.1,1.4l-5.6,4.4c-0.6,0.4-1,1-1.3,1.6
		c-0.3,0.6-0.4,1.2-0.3,1.8c0.1,0.6,0.3,1.2,0.7,1.7c0.4,0.5,0.9,0.9,1.5,1.1c0.6,0.2,1.2,0.3,1.8,0.1s1.2-0.4,1.8-0.9l5.6-4.4
		l1.1,1.4l-5.7,4.4c-0.8,0.6-1.7,1-2.6,1.2s-1.8,0-2.7-0.3c-0.9-0.4-1.6-0.9-2.2-1.7C135.9,44.5,135.6,43.6,135.4,42.7z"/>
	<path class="st1" d="M152.7,46.6l1.9,3.8c0.6,1.2,0.9,2.4,0.8,3.5c0,1.2-0.3,2.2-0.9,3.1c-0.6,0.9-1.4,1.7-2.5,2.2
		c-1.1,0.5-2.2,0.7-3.3,0.6c-1.1-0.1-2.1-0.5-3-1.2s-1.7-1.6-2.3-2.8l-1.9-3.8L152.7,46.6z M145,55.2c0.4,0.8,1,1.5,1.6,2
		s1.4,0.8,2.2,0.8c0.8,0.1,1.6-0.1,2.4-0.5s1.4-0.9,1.8-1.6c0.4-0.7,0.7-1.4,0.7-2.3c0-0.8-0.2-1.7-0.6-2.5l-1.1-2.3l-8.1,4
		L145,55.2z"/>
	<path class="st1" d="M159,60.9l0.6,1.7l-11.8,3.8l-0.6-1.7L159,60.9z"/>
	<path class="st1" d="M149.9,72c0.4-1.1,1.1-2,2-2.7c0.9-0.7,1.9-1.2,3-1.4c1.1-0.2,2.2-0.1,3.3,0.4c1.1,0.4,2,1.1,2.7,2
		c0.7,0.9,1.2,1.9,1.4,3c0.2,1.1,0.1,2.2-0.4,3.3c-0.4,1.1-1.1,2-1.9,2.7s-1.9,1.2-3,1.4c-1.1,0.2-2.2,0.1-3.3-0.4
		c-1.1-0.4-2-1.1-2.7-2c-0.7-0.9-1.2-1.9-1.4-3C149.4,74.1,149.5,73.1,149.9,72z M152.2,77.1c0.5,0.6,1.2,1.1,2,1.4
		c0.8,0.3,1.6,0.4,2.4,0.2c0.8-0.1,1.6-0.5,2.2-1s1.1-1.2,1.4-1.9c0.3-0.8,0.4-1.5,0.3-2.3c-0.1-0.8-0.5-1.5-1-2.1
		c-0.5-0.6-1.2-1.1-2-1.4c-0.8-0.3-1.6-0.4-2.4-0.2c-0.8,0.1-1.6,0.5-2.2,1c-0.7,0.5-1.1,1.2-1.5,1.9c-0.3,0.8-0.4,1.5-0.3,2.3
		S151.7,76.5,152.2,77.1z"/>
	<path class="st1" d="M162.9,90.7l-0.6,5.2c-0.1,0.8-0.4,1.6-0.8,2.3c-0.4,0.7-1,1.1-1.6,1.5c-0.7,0.3-1.4,0.4-2.1,0.4
		c-0.8-0.1-1.4-0.4-2-0.8s-1-1.1-1.2-1.8s-0.3-1.5-0.2-2.4l0.4-3.4l-4.3-0.5l0.2-1.8L162.9,90.7z M156,94.8c-0.1,0.9,0,1.6,0.4,2.2
		s0.9,0.9,1.6,1c0.7,0.1,1.3-0.1,1.8-0.6s0.8-1.2,0.9-2.1l0.4-3.1l-4.6-0.6L156,94.8z"/>
	<path class="st1" d="M160.7,104.5l-0.5,1.8l-12-3.1l0.5-1.8L160.7,104.5z"/>
	<path class="st1" d="M158.8,111.5l-1.7,3.9c-0.5,1.2-1.2,2.2-2.1,2.9c-0.9,0.7-1.9,1.2-3,1.4s-2.2,0-3.3-0.4
		c-1.1-0.5-2-1.2-2.6-2.1c-0.6-0.9-1-1.9-1.1-3.1c-0.1-1.2,0.1-2.3,0.7-3.6l1.7-3.9L158.8,111.5z M147.2,111.3
		c-0.4,0.9-0.5,1.7-0.5,2.5c0.1,0.8,0.3,1.6,0.8,2.2c0.5,0.7,1.1,1.1,1.9,1.5c0.8,0.3,1.6,0.5,2.4,0.3s1.5-0.4,2.2-1
		c0.6-0.5,1.1-1.2,1.5-2.1l1-2.4l-8.3-3.5L147.2,111.3z"/>
	<path class="st1" d="M139.2,127.2l3.7-5.3l-1.5-2.4l1.1-1.7l7.1,11.4l-1.1,1.7l-13.2-2.7l1.1-1.7L139.2,127.2z M140.9,127.6
		l6.3,1.3l-3.4-5.4L140.9,127.6z"/>
	<path class="st1" d="M142.4,138.8l-1.3,1.2l-11.6-1.9l6.4,6.8l-1.3,1.3l-8.5-9l1.3-1.3l11.6,1.9l-6.4-6.8l1.3-1.2L142.4,138.8z"/>
	<path class="st1" d="M120.8,143.1l-0.3,1.7c-1.6-0.4-3.1-0.3-4.4,0.4c-0.7,0.4-1.2,0.8-1.4,1.4c-0.2,0.5-0.2,1,0,1.5
		c0.3,0.5,0.7,0.7,1.2,0.8c0.6,0,1.4-0.1,2.5-0.4c0.9-0.2,1.7-0.4,2.4-0.4c0.7,0,1.2,0.1,1.7,0.3c0.5,0.2,0.9,0.7,1.3,1.3
		c0.3,0.6,0.4,1.2,0.4,1.9c-0.1,0.7-0.3,1.3-0.7,1.9c-0.4,0.6-1,1.1-1.7,1.5c-0.8,0.4-1.6,0.7-2.4,0.8c-0.8,0.1-1.6,0-2.4-0.2
		l0.3-1.7c0.7,0.2,1.4,0.2,2,0.2s1.3-0.2,1.8-0.5c0.4-0.2,0.7-0.5,0.9-0.8c0.2-0.3,0.4-0.7,0.4-1c0-0.3,0-0.7-0.2-1
		c-0.2-0.3-0.4-0.5-0.7-0.7c-0.3-0.1-0.7-0.1-1.1-0.1c-0.5,0.1-1.1,0.2-1.8,0.4c-1.4,0.4-2.5,0.5-3.4,0.3c-0.9-0.1-1.5-0.7-2-1.6
		c-0.3-0.6-0.5-1.3-0.4-1.9c0-0.7,0.3-1.3,0.7-1.9c0.4-0.6,1.1-1.1,1.9-1.6C117.2,142.8,119,142.6,120.8,143.1z"/>
	<path class="st1" d="M109.9,157.9l3.9-1.3l0.5,1.6l-9.4,3.2l-0.5-1.6l3.8-1.3l-3.4-10.1l1.7-0.6L109.9,157.9z"/>
	<path class="st1" d="M96.7,151c0.9,0.3,1.6,0.9,2.1,1.6c0.6,0.8,0.9,1.6,1.1,2.7l1,7.1l-1.8,0.3l-1-7.1c-0.1-0.7-0.3-1.4-0.7-1.9
		c-0.4-0.5-0.8-0.9-1.4-1.2c-0.6-0.2-1.2-0.3-1.9-0.2c-0.7,0.1-1.2,0.3-1.7,0.7c-0.5,0.4-0.8,0.9-1,1.5c-0.2,0.6-0.3,1.3-0.2,2
		l1,7.1l-1.8,0.3l-1-7.1c-0.1-1,0-2,0.3-2.9c0.3-0.9,0.9-1.6,1.6-2.2c0.7-0.6,1.6-0.9,2.6-1.1C94.9,150.5,95.8,150.6,96.7,151z"/>
	<path class="st1" d="M84.7,164l-4.3-0.3c-1.3-0.1-2.5-0.4-3.5-1c-1-0.6-1.8-1.4-2.3-2.3s-0.7-2-0.7-3.2c0.1-1.2,0.4-2.2,1.1-3.1
		c0.6-0.9,1.5-1.6,2.6-2c1.1-0.5,2.3-0.7,3.6-0.6l4.3,0.3L84.7,164z M81,153.1c-0.9-0.1-1.8,0.1-2.5,0.4c-0.8,0.3-1.4,0.8-1.8,1.5
		c-0.5,0.7-0.7,1.4-0.8,2.3c-0.1,0.9,0.1,1.7,0.5,2.4s0.9,1.3,1.6,1.7c0.7,0.4,1.5,0.7,2.5,0.7l2.6,0.2l0.6-9L81,153.1z"/>
	<path class="st1" d="M69.2,162.3l-1.8-0.4l2.6-12.1l1.8,0.4L69.2,162.3z"/>
	<path class="st1" d="M64,149c0.7,0.9,1.2,1.9,1.4,3s0.1,2.2-0.3,3.3c-0.4,1.1-1.1,1.9-2,2.7c-0.9,0.7-1.9,1.2-3,1.3
		c-1.1,0.2-2.2,0.1-3.3-0.3c-1.1-0.4-2-1.1-2.7-1.9c-0.7-0.9-1.2-1.9-1.4-3c-0.2-1.1-0.1-2.2,0.3-3.3c0.4-1.1,1.1-2,1.9-2.7
		c0.9-0.7,1.9-1.2,3-1.4c1.1-0.2,2.2-0.1,3.3,0.3C62.4,147.4,63.3,148.1,64,149z M58.4,148.4c-0.8,0.2-1.5,0.5-2.2,1s-1.1,1.2-1.4,2
		c-0.3,0.8-0.4,1.6-0.3,2.4c0.1,0.8,0.4,1.6,1,2.2c0.5,0.7,1.1,1.1,1.9,1.4c0.8,0.3,1.5,0.4,2.3,0.2c0.8-0.2,1.5-0.5,2.2-1
		c0.6-0.5,1.1-1.2,1.4-2c0.3-0.8,0.4-1.6,0.3-2.4s-0.4-1.6-0.9-2.2c-0.5-0.7-1.1-1.1-1.9-1.4S59.2,148.2,58.4,148.4z"/>
	<path class="st1" d="M41.3,150.9l-4.2-3.1c-0.7-0.5-1.2-1.1-1.6-1.8c-0.4-0.7-0.5-1.4-0.5-2.1c0-0.7,0.3-1.4,0.8-2
		c0.5-0.6,1-1.1,1.7-1.3c0.7-0.3,1.4-0.3,2.2-0.2c0.8,0.1,1.5,0.5,2.2,1l2.7,2l2.6-3.4l1.5,1.1L41.3,150.9z M41.2,142.9
		c-0.7-0.5-1.4-0.8-2.1-0.8c-0.7,0-1.3,0.3-1.7,0.9c-0.4,0.6-0.6,1.2-0.4,1.9c0.2,0.7,0.6,1.3,1.4,1.8l2.5,1.9l2.8-3.7L41.2,142.9z"
		/>
	<path class="st1" d="M30.5,142.1l-1.3-1.3l8.7-8.8l1.3,1.3L30.5,142.1z"/>
	<path class="st1" d="M25.4,137l-2.6-3.4c-0.8-1.1-1.3-2.1-1.5-3.3c-0.2-1.1-0.1-2.2,0.3-3.3s1.1-1.9,2-2.6c0.9-0.7,2-1.1,3.1-1.2
		c1.1-0.1,2.2,0.1,3.2,0.6c1,0.5,2,1.3,2.8,2.3l2.6,3.4L25.4,137z M31.3,127c-0.6-0.7-1.2-1.3-2-1.7s-1.5-0.5-2.3-0.4
		s-1.5,0.4-2.2,0.9s-1.2,1.2-1.5,1.9c-0.3,0.7-0.4,1.5-0.2,2.3c0.1,0.8,0.5,1.6,1.1,2.3l1.5,2l7.2-5.5L31.3,127z"/>
	<path class="st1" d="M21.5,112.2l2.8,5.8l2.8-0.1l0.9,1.8l-13.4,0.5l-0.9-1.8l8.9-10.1l0.9,1.8L21.5,112.2z M20.4,113.5l-4.2,4.8
		l6.4-0.2L20.4,113.5z"/>
	<path class="st1" d="M9.9,109.1l-0.4-1.8l7.5-9.1l-9.1,2.2l-0.4-1.8l12-2.9l0.4,1.8l-7.5,9.1l9.1-2.2l0.4,1.8L9.9,109.1z"/>
	<path class="st1" d="M16.9,88.3l-1.3-1.1c1.2-1.2,1.8-2.5,1.9-4c0-0.8-0.1-1.5-0.5-1.9c-0.4-0.5-0.8-0.7-1.3-0.7
		c-0.6,0-1,0.2-1.3,0.7c-0.3,0.5-0.6,1.3-0.9,2.4c-0.2,0.9-0.5,1.7-0.8,2.3c-0.3,0.6-0.7,1-1.1,1.4c-0.5,0.3-1.1,0.5-1.8,0.4
		c-0.7,0-1.3-0.2-1.8-0.6c-0.5-0.4-1-0.9-1.2-1.6c-0.3-0.7-0.4-1.4-0.4-2.2c0-0.9,0.2-1.7,0.5-2.4c0.3-0.7,0.8-1.4,1.4-2l1.3,1.1
		c-0.5,0.5-0.9,1.1-1.2,1.7c-0.3,0.6-0.4,1.2-0.5,1.8c0,0.4,0.1,0.8,0.2,1.2c0.2,0.4,0.4,0.7,0.7,0.9c0.3,0.2,0.6,0.3,0.9,0.3
		c0.4,0,0.7-0.1,0.9-0.3s0.5-0.5,0.6-1c0.2-0.4,0.4-1,0.6-1.8c0.4-1.4,0.8-2.4,1.4-3.1s1.3-1,2.4-1c0.7,0,1.3,0.2,1.9,0.6
		s1,0.9,1.3,1.6c0.3,0.7,0.4,1.5,0.4,2.5C19,85.3,18.3,87,16.9,88.3z"/>
	<path class="st1" d="M9.4,71.5l-0.8,4L7,75.1l1.9-9.7l1.7,0.3l-0.8,4l10.5,2.1l-0.4,1.8L9.4,71.5z"/>
	<path class="st1" d="M22.1,63.4c-0.7,0.6-1.6,0.9-2.5,1c-0.9,0.1-1.9,0-2.8-0.4l-6.6-2.7l0.7-1.7l6.6,2.7c0.7,0.3,1.3,0.4,2,0.3
		c0.6-0.1,1.2-0.3,1.7-0.6s0.9-0.9,1.1-1.5c0.2-0.6,0.3-1.2,0.2-1.9s-0.4-1.2-0.8-1.6c-0.4-0.5-1-0.9-1.7-1.1l-6.6-2.7l0.7-1.7
		l6.6,2.7c1,0.4,1.8,0.9,2.3,1.7s1,1.6,1.1,2.5c0.1,0.9,0,1.9-0.4,2.8C23.4,62.1,22.8,62.9,22.1,63.4z"/>
	<path class="st1" d="M16.7,46.5l2.4-3.6c0.7-1.1,1.6-1.9,2.6-2.5c1-0.6,2.1-0.8,3.2-0.8c1.1,0,2.1,0.4,3.1,1c1,0.7,1.7,1.5,2.2,2.5
		c0.5,1,0.6,2.1,0.5,3.2s-0.6,2.3-1.3,3.4L27,53.4L16.7,46.5z M28,48.8c0.5-0.8,0.8-1.6,0.9-2.4c0.1-0.8,0-1.6-0.4-2.3
		c-0.3-0.7-0.9-1.3-1.6-1.8s-1.5-0.7-2.3-0.8c-0.8,0-1.6,0.1-2.3,0.6c-0.7,0.4-1.4,1-1.9,1.8l-1.4,2.1l7.5,5L28,48.8z"/>
	<path class="st1" d="M25.9,34l1.2-1.4l9.2,8.3l-1.2,1.4L25.9,34z"/>
	<path class="st1" d="M40.1,36.1c-1.1,0.2-2.2,0.1-3.3-0.3c-1.1-0.4-2-1-2.7-1.9c-0.7-0.9-1.2-1.9-1.3-3c-0.2-1.1-0.1-2.2,0.3-3.3
		c0.4-1.1,1-2,1.9-2.7c0.9-0.7,1.9-1.2,3-1.3c1.1-0.2,2.2-0.1,3.3,0.3c1.1,0.4,2,1,2.7,1.9c0.7,0.9,1.2,1.9,1.3,3
		c0.2,1.1,0.1,2.2-0.3,3.3c-0.4,1.1-1,2-1.9,2.7C42.2,35.5,41.2,36,40.1,36.1z M43.4,31.6c0.3-0.8,0.3-1.6,0.2-2.4
		c-0.1-0.8-0.5-1.6-1-2.2s-1.2-1.1-2-1.4c-0.8-0.3-1.6-0.4-2.4-0.3c-0.8,0.1-1.5,0.4-2.2,0.9c-0.6,0.5-1.1,1.2-1.3,1.9
		c-0.3,0.8-0.3,1.6-0.2,2.4s0.5,1.6,1,2.2s1.2,1.1,2,1.4c0.8,0.3,1.6,0.4,2.4,0.3c0.8-0.1,1.5-0.4,2.2-0.9
		C42.6,33,43.1,32.4,43.4,31.6z"/>
</g>
<path id="SVGID_x5F_1_x5F__1_" style="fill:none;" d="M-270.7,52.9c0,36.4-29.5,65.9-65.9,65.9s-65.9-29.5-65.9-65.9
	s29.5-65.9,65.9-65.9S-270.7,16.6-270.7,52.9z"/>
<text><textPath  xlink:href="#SVGID_x5F_1_x5F__1_" startOffset="89.7135%">
<tspan  class="st1" style="font-family:'ClarityCity-Medium'; font-size:18px; letter-spacing:20;">PIDAN STUDIO PIDAN STUDIO PIDAN STUDIO</tspan></textPath>
</text>
</svg>
