<?xml version="1.0" encoding="utf-8"?>
<!-- Generator: Adobe Illustrator 25.0.0, SVG Export Plug-In . SVG Version: 6.00 Build 0)  -->
<svg version="1.1" id="Layer_1" xmlns="http://www.w3.org/2000/svg" xmlns:xlink="http://www.w3.org/1999/xlink" x="0px" y="0px"
	 viewBox="0 0 490.4 46.7" style="enable-background:new 0 0 490.4 46.7;" xml:space="preserve">
<style type="text/css">
	.st0{enable-background:new    ;}
	.st1{fill:#FFFFFF;}
</style>
<g class="st0">
	<path class="st1" d="M0,0.9h20.3c3.2,0,6.1,0.6,8.7,1.9c2.6,1.3,4.6,3.1,6.1,5.4s2.2,4.9,2.2,7.9c0,2.9-0.7,5.6-2.2,7.9
		c-1.5,2.3-3.5,4.1-6.1,5.4c-2.6,1.3-5.5,1.9-8.7,1.9H9.7v14.6H0C0,45.9,0,0.9,0,0.9z M19.2,22.5c2.4,0,4.3-0.6,5.8-1.7
		c1.5-1.2,2.2-2.7,2.2-4.6c0-1.9-0.7-3.5-2.2-4.6c-1.5-1.2-3.4-1.7-5.8-1.7H9.6v12.7L19.2,22.5L19.2,22.5z"/>
	<path class="st1" d="M45.5,0.9h9.7v45h-9.7V0.9z"/>
	<path class="st1" d="M66.6,0.9h16.2c5,0,9.4,1,13.4,2.9c3.9,1.9,7,4.6,9.2,8c2.2,3.4,3.3,7.3,3.3,11.6s-1.1,8.2-3.3,11.6
		s-5.3,6.1-9.2,8c-3.9,1.9-8.4,2.9-13.4,2.9H66.6V0.9z M84.1,37.2c2.8,0,5.4-0.6,7.6-1.8s4-2.8,5.2-4.9c1.2-2.1,1.9-4.4,1.9-7.1
		c0-2.6-0.6-5-1.9-7c-1.2-2.1-3-3.7-5.2-4.9c-2.2-1.2-4.8-1.8-7.6-1.8h-7.7v27.5H84.1z"/>
	<path class="st1" d="M146.8,38.2h-19.5l-3.1,7.7h-10.8l18.4-45h10.8l18.4,45h-10.9L146.8,38.2z M143.7,30.7L137,14.2l-6.7,16.5
		H143.7z"/>
	<path class="st1" d="M168.2,0.9h9.7L199.6,30V0.9h9.7v45h-9.7l-21.7-29.1v29.1h-9.7V0.9z"/>
	<path class="st1" d="M244.2,44.9c-3.4-1.3-6.4-3.1-9-5.6l5.5-6.6c4.5,3.9,9.5,5.9,14.8,5.9c2.4,0,4.2-0.5,5.5-1.4s1.9-2.2,1.9-3.6
		c0-1-0.3-1.9-0.9-2.6c-0.6-0.7-1.6-1.2-2.9-1.7s-3.2-1-5.7-1.5c-3.6-0.8-6.6-1.7-8.9-2.7s-4.1-2.3-5.4-4.1c-1.3-1.7-2-4-2-6.8
		s0.7-5.2,2.1-7.3s3.4-3.8,5.9-5s5.4-1.8,8.7-1.8c6.9,0,12.7,2.1,17.6,6.2l-5,7c-2.1-1.7-4.2-2.9-6.4-3.8c-2.2-0.9-4.4-1.3-6.5-1.3
		c-2,0-3.6,0.5-4.8,1.4s-1.8,2.1-1.8,3.5c0,1.1,0.3,2,1,2.6c0.6,0.7,1.6,1.2,3,1.7c1.3,0.5,3.3,1,5.8,1.6c3.6,0.8,6.5,1.7,8.8,2.7
		s4.1,2.4,5.4,4.1c1.3,1.7,1.9,3.9,1.9,6.6c0,2.8-0.7,5.3-2.1,7.5s-3.4,3.8-6.1,5c-2.7,1.2-5.8,1.8-9.3,1.8
		C251.2,46.8,247.6,46.1,244.2,44.9z"/>
	<path class="st1" d="M291.7,9.7h-14V1h37.8v8.7h-14.1V46h-9.6L291.7,9.7L291.7,9.7z"/>
	<path class="st1" d="M332,44.2c-3.1-1.7-5.5-4.1-7.2-7.2s-2.6-6.6-2.6-10.5V0.9h9.6v25.2c0,2.3,0.5,4.3,1.4,6.1s2.2,3.2,3.8,4.2
		c1.6,1,3.5,1.5,5.5,1.5c2.1,0,3.9-0.5,5.5-1.5s2.9-2.4,3.8-4.2s1.4-3.9,1.4-6.1V0.9h9.7v25.6c0,3.9-0.9,7.4-2.6,10.5
		s-4.1,5.5-7.2,7.2s-6.6,2.6-10.6,2.6S335.1,45.9,332,44.2z"/>
	<path class="st1" d="M373.4,0.9h16.2c5,0,9.4,1,13.4,2.9c3.9,1.9,7,4.6,9.2,8s3.3,7.3,3.3,11.6s-1.1,8.2-3.3,11.6
		c-2.2,3.4-5.3,6.1-9.2,8c-3.9,1.9-8.4,2.9-13.4,2.9h-16.2V0.9z M390.8,37.2c2.8,0,5.4-0.6,7.6-1.8s4-2.8,5.2-4.9
		c1.2-2.1,1.9-4.4,1.9-7.1c0-2.6-0.6-5-1.9-7c-1.2-2.1-3-3.7-5.2-4.9c-2.2-1.2-4.8-1.8-7.6-1.8h-7.7v27.5H390.8z"/>
	<path class="st1" d="M424.1,0.9h9.7v45h-9.7V0.9z"/>
	<path class="st1" d="M454.6,43.6c-3.7-2.1-6.6-5-8.8-8.6c-2.2-3.6-3.3-7.5-3.3-11.6c0-4.2,1.1-8,3.3-11.6c2.2-3.6,5.1-6.4,8.8-8.5
		c3.7-2.1,7.7-3.2,11.9-3.2s8.2,1.1,11.9,3.2c3.7,2.1,6.6,5,8.8,8.5c2.2,3.6,3.2,7.4,3.2,11.6s-1.1,8-3.2,11.6
		c-2.2,3.6-5.1,6.4-8.8,8.6c-3.7,2.1-7.6,3.2-11.9,3.2S458.3,45.7,454.6,43.6z M473.5,36c2.2-1.3,3.9-3.1,5.1-5.3
		c1.3-2.2,1.9-4.6,1.9-7.2c0-2.5-0.6-4.9-1.9-7.1c-1.3-2.2-3-4-5.1-5.3c-2.2-1.3-4.5-2-6.9-2c-2.5,0-4.8,0.7-6.9,2s-3.9,3.1-5.1,5.3
		c-1.3,2.2-1.9,4.6-1.9,7.1c0,2.6,0.6,5,1.9,7.2s3,4,5.1,5.3c2.2,1.3,4.5,2,7,2C469,38,471.3,37.3,473.5,36z"/>
</g>
</svg>
