<?xml version="1.0" encoding="utf-8"?>
<!-- Generator: Adobe Illustrator 25.0.0, SVG Export Plug-In . SVG Version: 6.00 Build 0)  -->
<svg version="1.1" id="Layer_1" xmlns="http://www.w3.org/2000/svg" xmlns:xlink="http://www.w3.org/1999/xlink" x="0px" y="0px"
	 viewBox="0 0 58.4 58.4" style="enable-background:new 0 0 58.4 58.4;" xml:space="preserve">
<style type="text/css">
	.st0{fill:#FFFFFF;}
</style>
<g>
	<g>
		<g>
			<path class="st0" d="M-50.3,5.3c7.8,0,8.7,0,11.8,0.2c2.8,0.1,4.4,0.6,5.4,1c1.4,0.5,2.3,1.2,3.4,2.2c1,1,1.7,2,2.2,3.4
				c0.4,1,0.9,2.6,1,5.4c0.1,3.1,0.2,4,0.2,11.8s0,8.7-0.2,11.8c-0.1,2.8-0.6,4.4-1,5.4c-0.5,1.4-1.2,2.3-2.2,3.4
				c-1,1-2,1.7-3.4,2.2c-1,0.4-2.6,0.9-5.4,1c-3.1,0.1-4,0.2-11.8,0.2c-7.8,0-8.7,0-11.8-0.2c-2.8-0.1-4.4-0.6-5.4-1
				c-1.4-0.5-2.3-1.2-3.4-2.2c-1-1-1.7-2-2.2-3.4c-0.4-1-0.9-2.6-1-5.4c-0.1-3.1-0.2-4-0.2-11.8s0-8.7,0.2-11.8
				c0.1-2.8,0.6-4.4,1-5.4c0.5-1.4,1.2-2.3,2.2-3.4c1-1,2-1.7,3.4-2.2c1-0.4,2.6-0.9,5.4-1C-59,5.3-58.1,5.3-50.3,5.3 M-50.3,0
				c-7.9,0-8.9,0-12,0.2c-3.1,0.1-5.2,0.6-7.1,1.4c-1.9,0.7-3.6,1.7-5.2,3.4c-1.6,1.6-2.6,3.3-3.4,5.2c-0.7,1.9-1.2,4-1.4,7.1
				c-0.1,3.1-0.2,4.1-0.2,12c0,7.9,0,8.9,0.2,12c0.1,3.1,0.6,5.2,1.4,7.1c0.7,1.9,1.7,3.6,3.4,5.2c1.6,1.6,3.3,2.6,5.2,3.4
				c1.9,0.7,4,1.2,7.1,1.4c3.1,0.1,4.1,0.2,12,0.2c7.9,0,8.9,0,12-0.2c3.1-0.1,5.2-0.6,7.1-1.4c1.9-0.7,3.6-1.7,5.2-3.4
				c1.6-1.6,2.6-3.3,3.4-5.2c0.7-1.9,1.2-4,1.4-7.1c0.1-3.1,0.2-4.1,0.2-12s0-8.9-0.2-12c-0.1-3.1-0.6-5.2-1.4-7.1
				c-0.7-1.9-1.7-3.6-3.4-5.2c-1.6-1.6-3.3-2.6-5.2-3.4c-1.9-0.7-4-1.2-7.1-1.4C-41.3,0-42.3,0-50.3,0L-50.3,0z"/>
			<path class="st0" d="M-50.3,14.2c-8.3,0-15,6.7-15,15s6.7,15,15,15c8.3,0,15-6.7,15-15S-42,14.2-50.3,14.2z M-50.3,39
				c-5.4,0-9.7-4.4-9.7-9.7s4.4-9.7,9.7-9.7s9.7,4.4,9.7,9.7S-44.9,39-50.3,39z"/>
			<circle class="st0" cx="-34.7" cy="13.6" r="3.5"/>
		</g>
	</g>
</g>
<g>
	<path d="M207.1-91.3c-0.7-2.7-2.8-4.8-5.5-5.5c-4.8-1.3-24.2-1.3-24.2-1.3s-19.4,0-24.2,1.3c-2.7,0.7-4.8,2.8-5.5,5.5
		c-1.3,4.8-1.3,14.9-1.3,14.9s0,10.1,1.3,14.9c0.7,2.7,2.8,4.8,5.5,5.5c4.8,1.3,24.2,1.3,24.2,1.3s19.4,0,24.2-1.3
		c2.7-0.7,4.8-2.8,5.5-5.5c1.3-4.8,1.3-14.9,1.3-14.9S208.4-86.5,207.1-91.3z M171.3-67.1v-18.6l16.1,9.3L171.3-67.1z"/>
</g>
<path class="st0" d="M42.8,32.6l1.6-10.5H34.3v-6.8c0-2.9,1.4-5.7,5.9-5.7h4.6V0.7c0,0-4.2-0.7-8.1-0.7C28.4,0,23,5,23,14.1v8h-9.2
	v10.5H23V58c1.8,0.3,3.7,0.4,5.7,0.4s3.8-0.2,5.7-0.4V32.6H42.8z"/>
</svg>
