<?xml version="1.0" encoding="utf-8"?>
<!-- Generator: Adobe Illustrator 25.0.0, SVG Export Plug-In . SVG Version: 6.00 Build 0)  -->
<svg version="1.1" id="Layer_1" xmlns="http://www.w3.org/2000/svg" xmlns:xlink="http://www.w3.org/1999/xlink" x="0px" y="0px"
	 viewBox="0 0 58.4 58.4" style="enable-background:new 0 0 58.4 58.4;" xml:space="preserve">
<style type="text/css">
	.st0{fill:#FFFFFF;}
</style>
<g>
	<g>
		<g>
			<path class="st0" d="M-50.3,5.3c7.8,0,8.7,0,11.8,0.2c2.8,0.1,4.4,0.6,5.4,1c1.4,0.5,2.3,1.2,3.4,2.2c1,1,1.7,2,2.2,3.4
				c0.4,1,0.9,2.6,1,5.4c0.1,3.1,0.2,4,0.2,11.8s0,8.7-0.2,11.8c-0.1,2.8-0.6,4.4-1,5.4c-0.5,1.4-1.2,2.3-2.2,3.4
				c-1,1-2,1.7-3.4,2.2c-1,0.4-2.6,0.9-5.4,1c-3.1,0.1-4,0.2-11.8,0.2c-7.8,0-8.7,0-11.8-0.2c-2.8-0.1-4.4-0.6-5.4-1
				c-1.4-0.5-2.3-1.2-3.4-2.2c-1-1-1.7-2-2.2-3.4c-0.4-1-0.9-2.6-1-5.4c-0.1-3.1-0.2-4-0.2-11.8s0-8.7,0.2-11.8
				c0.1-2.8,0.6-4.4,1-5.4c0.5-1.4,1.2-2.3,2.2-3.4c1-1,2-1.7,3.4-2.2c1-0.4,2.6-0.9,5.4-1C-59,5.3-58.1,5.3-50.3,5.3 M-50.3,0
				c-7.9,0-8.9,0-12,0.2c-3.1,0.1-5.2,0.6-7.1,1.4c-1.9,0.7-3.6,1.7-5.2,3.4c-1.6,1.6-2.6,3.3-3.4,5.2c-0.7,1.9-1.2,4-1.4,7.1
				c-0.1,3.1-0.2,4.1-0.2,12c0,7.9,0,8.9,0.2,12c0.1,3.1,0.6,5.2,1.4,7.1c0.7,1.9,1.7,3.6,3.4,5.2c1.6,1.6,3.3,2.6,5.2,3.4
				c1.9,0.7,4,1.2,7.1,1.4c3.1,0.1,4.1,0.2,12,0.2c7.9,0,8.9,0,12-0.2c3.1-0.1,5.2-0.6,7.1-1.4c1.9-0.7,3.6-1.7,5.2-3.4
				c1.6-1.6,2.6-3.3,3.4-5.2c0.7-1.9,1.2-4,1.4-7.1c0.1-3.1,0.2-4.1,0.2-12s0-8.9-0.2-12c-0.1-3.1-0.6-5.2-1.4-7.1
				c-0.7-1.9-1.7-3.6-3.4-5.2c-1.6-1.6-3.3-2.6-5.2-3.4c-1.9-0.7-4-1.2-7.1-1.4C-41.3,0-42.3,0-50.3,0L-50.3,0z"/>
			<path class="st0" d="M-50.3,14.2c-8.3,0-15,6.7-15,15s6.7,15,15,15c8.3,0,15-6.7,15-15S-42,14.2-50.3,14.2z M-50.3,39
				c-5.4,0-9.7-4.4-9.7-9.7s4.4-9.7,9.7-9.7s9.7,4.4,9.7,9.7S-44.9,39-50.3,39z"/>
			<circle class="st0" cx="-34.7" cy="13.6" r="3.5"/>
		</g>
	</g>
</g>
<g>
	<path class="st0" d="M57.2,15.2c-0.7-2.5-2.7-4.5-5.2-5.2c-4.6-1.2-22.8-1.2-22.8-1.2S10.9,8.8,6.4,10c-2.5,0.7-4.5,2.7-5.2,5.2
		C0,19.7,0,29.2,0,29.2s0,9.5,1.2,14.1c0.7,2.5,2.7,4.5,5.2,5.2c4.6,1.2,22.8,1.2,22.8,1.2s18.3,0,22.8-1.2c2.5-0.7,4.5-2.7,5.2-5.2
		c1.2-4.6,1.2-14.1,1.2-14.1S58.4,19.7,57.2,15.2z M23.4,38V20.5l15.2,8.8L23.4,38z"/>
</g>
<path class="st0" d="M-90.5,27.4l1.6-10.5H-99v-6.8c0-2.9,1.4-5.7,5.9-5.7h4.6v-8.9c0,0-4.2-0.7-8.1-0.7c-8.3,0-13.7,5-13.7,14.1v8
	h-9.2v10.5h9.2v25.4c1.8,0.3,3.7,0.4,5.7,0.4c1.9,0,3.8-0.2,5.7-0.4V27.4H-90.5z"/>
</svg>
